# xmcd CD database file
#
# Track frame offsets:
#	150
#	12479
#	22445
#	34717
#	47795
#	60535
#	76006
#	91066
#	103695
#	117793
#	129379
#	138725
#	153542
#	165734
#	180859
#
# Disc length: 2552 seconds
#
# Revision: 1
# Processed by: cddbd v1.5PL3 Copyright (c) Steve Scherf et al.
# Submitted via: CDex 1.51
#
DISCID=bd09f60f
DTITLE=Merle Haggard - Country Legends
DYEAR=1999
DGENRE=Country
TTITLE0=Okie From Muskogee
TTITLE1=Mama Tried
TTITLE2=If We Make It Through December
TTITLE3=The Fightin' Side Of Me
TTITLE4=Sing Me Back Home
TTITLE5=Hungry Eyes
TTITLE6=Daddy Frank (The Guitar Man)
TTITLE7=The Bottle Let Me Down
TTITLE8=Branded Man
TTITLE9=Workin' Man Blues
TTITLE10=The Legend Of Bonnie And Clyde
TTITLE11=It's All In The Movies
TTITLE12=Kentucky Gambler
TTITLE13=It's Not Love (But It's Not Bad)
TTITLE14=Old Man From The Mountain
EXTD=YEAR: 1999
EXTT0=
EXTT1=
EXTT2=
EXTT3=
EXTT4=
EXTT5=
EXTT6=
EXTT7=
EXTT8=
EXTT9=
EXTT10=
EXTT11=
EXTT12=
EXTT13=
EXTT14=
PLAYORDER=
